HIERARCHY
ROOT Hips
{
 OFFSET 0.000000 0.000000 0.000000
 CHANNELS 6 Xposition Yposition Zposition Yrotation Xrotation Zrotation
 JOINT Chest
 {
  OFFSET 0.000000 9.585900 0.002600
  CHANNELS 3 Yrotation Xrotation Zrotation
  JOINT Chest2
  {
   OFFSET 0.000000 9.601200 -0.005300
   CHANNELS 3 Yrotation Xrotation Zrotation
   JOINT Chest3
   {
    OFFSET 0.000000 9.561800 0.000000
    CHANNELS 3 Yrotation Xrotation Zrotation
    JOINT Chest4
    {
     OFFSET 0.000000 9.552100 0.000000
     CHANNELS 3 Yrotation Xrotation Zrotation
     JOINT Neck
     {
      OFFSET 0.000000 14.453000 0.000000
      CHANNELS 3 Yrotation Xrotation Zrotation
      JOINT Head
      {
       OFFSET 0.000000 8.936500 -0.011300
       CHANNELS 3 Yrotation Xrotation Zrotation
       End Site
       {
        OFFSET 0.000000 17.073600 -0.006000
       }
      }
     }
     JOINT RightCollar
     {
      OFFSET -2.921100 9.558500 0.000000
      CHANNELS 3 Yrotation Xrotation Zrotation
      JOINT RightShoulder
      {
       OFFSET -13.519700 0.000000 0.000000
       CHANNELS 3 Yrotation Xrotation Zrotation
       JOINT RightElbow
       {
        OFFSET 0.000000 -29.696600 0.000000
        CHANNELS 3 Yrotation Xrotation Zrotation
        JOINT RightWrist
        {
         OFFSET 0.000000 -24.004700 0.000000
         CHANNELS 3 Yrotation Xrotation Zrotation
         End Site
         {
          OFFSET 0.000000 -17.728500 0.000000
         }
        }
       }
      }
     }
     JOINT LeftCollar
     {
      OFFSET 2.921100 9.558500 0.000000
      CHANNELS 3 Yrotation Xrotation Zrotation
      JOINT LeftShoulder
      {
       OFFSET 13.519700 0.000000 0.000000
       CHANNELS 3 Yrotation Xrotation Zrotation
       JOINT LeftElbow
       {
        OFFSET 0.000000 -29.696600 0.000000
        CHANNELS 3 Yrotation Xrotation Zrotation
        JOINT LeftWrist
        {
         OFFSET 0.000000 -24.004700 0.000000
         CHANNELS 3 Yrotation Xrotation Zrotation
         End Site
         {
          OFFSET 0.000000 -17.728500 0.000000
         }
        }
       }
      }
     }
    }
   }
  }
 }
 JOINT RightHip
 {
  OFFSET -7.771700 -0.012900 -0.001300
  CHANNELS 3 Yrotation Xrotation Zrotation
  JOINT RightKnee
  {
   OFFSET 0.000000 -40.869800 0.001200
   CHANNELS 3 Yrotation Xrotation Zrotation
   JOINT RightAnkle
   {
    OFFSET 0.000000 -39.717900 0.002100
    CHANNELS 3 Yrotation Xrotation Zrotation
    JOINT RightToe
    {
     OFFSET 0.000000 -4.965400 11.033500
     CHANNELS 3 Yrotation Xrotation Zrotation
     End Site
     {
      OFFSET 0.000000 -1.423100 5.872300
     }
    }
   }
  }
 }
 JOINT LeftHip
 {
  OFFSET 7.771700 -0.012900 -0.001300
  CHANNELS 3 Yrotation Xrotation Zrotation
  JOINT LeftKnee
  {
   OFFSET 0.000000 -40.869800 0.001200
   CHANNELS 3 Yrotation Xrotation Zrotation
   JOINT LeftAnkle
   {
    OFFSET 0.000000 -39.717900 0.002100
    CHANNELS 3 Yrotation Xrotation Zrotation
    JOINT LeftToe
    {
     OFFSET 0.000000 -4.965400 11.033500
     CHANNELS 3 Yrotation Xrotation Zrotation
     End Site
     {
      OFFSET 0.000000 -1.423100 5.872300
     }
    }
   }
  }
 }
}
MOTION
Frames: 11
Frame Time: 0.008333
-9.277843 51.300806 23.359221 -179.247121 -32.370171 -9.615437 -0.558266 13.798186 3.240584 -0.453212 7.919445 1.910829 -0.523619 9.920628 2.393002 -0.437802 7.885996 1.887959 6.245857 20.695651 0.484711 6.651602 -3.519452 -0.911228 1.863921 1.743303 -2.617699 -17.015307 -8.157218 3.918490 56.151188 -77.967792 -38.368345 11.948850 -0.441190 -17.387938 -8.572692 2.917696 -2.903911 7.262571 -4.547431 -3.308207 -80.978936 -76.472513 83.428614 14.581829 -8.661320 -0.033659 -19.315695 -37.627358 12.893355 -4.048672 73.314847 -7.605311 0.031023 -2.673807 -2.738413 0.000865 0.669100 0.301226 -14.399520 -47.281209 12.561403 173.326283 76.985708 168.875038 -1.410304 -19.558599 0.670448 0.008480 0.022120 -0.002659
-9.278764 51.251204 23.349627 -179.252535 -32.342996 -9.597536 -0.555842 13.774356 3.226695 -0.454200 7.911114 1.906776 -0.517981 9.896403 2.380206 -0.432207 7.867058 1.881947 6.215242 20.626053 0.489013 6.615111 -3.602149 -0.899680 1.854117 1.735591 -2.610630 -17.030622 -8.160162 3.927178 55.924523 -77.936569 -38.133126 11.913215 -0.460721 -17.397236 -8.573313 2.896566 -2.914453 7.302712 -4.503902 -3.311613 -80.925469 -76.804746 83.305026 14.669418 -8.605036 -0.225591 -19.200434 -37.544565 12.755110 -4.234512 73.638279 -7.812254 -0.046965 -3.062770 -2.775732 -0.001354 0.448199 0.360517 -14.401811 -47.334111 12.553471 173.338890 76.946113 168.888987 -1.410368 -19.599933 0.670142 0.011380 0.046601 -0.002930
-9.282778 51.203710 23.344387 -179.256952 -32.285787 -9.560312 -0.562371 13.721044 3.193931 -0.446223 7.896960 1.900272 -0.517518 9.873199 2.371489 -0.433296 7.865254 1.882799 6.187381 20.544874 0.486435 6.577799 -3.687146 -0.887772 1.848938 1.717358 -2.612837 -17.045071 -8.164471 3.937290 55.639224 -77.914659 -37.872374 11.906692 -0.472148 -17.372238 -8.544085 2.824257 -2.940414 7.320021 -4.428297 -3.300396 -80.837355 -77.088936 83.155890 14.733377 -8.542825 -0.399871 -19.078544 -37.487203 12.592811 -4.365393 73.988295 -7.969269 -0.121700 -3.510587 -2.808267 -0.000175 0.294965 0.411293 -14.401685 -47.414593 12.516716 173.295473 76.916901 168.852044 -1.403422 -19.645132 0.655887 0.013234 0.080769 -0.003045
-9.283717 51.166321 23.332605 -179.256822 -32.278898 -9.542330 -0.548669 13.739871 3.187271 -0.437938 7.862140 1.887750 -0.526418 9.854494 2.367410 -0.426152 7.848396 1.877736 6.155583 20.473082 0.491231 6.539915 -3.772136 -0.875382 1.839095 1.709296 -2.610731 -17.058659 -8.139991 3.946575 55.485058 -77.907230 -37.726433 11.892464 -0.474073 -17.367022 -8.559659 2.853955 -2.928189 7.372181 -4.446729 -3.337327 -80.736566 -77.307911 83.005805 14.772735 -8.477763 -0.547055 -18.948053 -37.353461 12.418344 -4.419330 74.355760 -8.055217 -0.181247 -4.019607 -2.835710 0.000161 0.193237 0.450879 -14.393114 -47.433974 12.485336 173.244477 76.888858 168.812309 -1.406601 -19.682439 0.642207 0.017290 0.100357 -0.002565
-9.283965 51.133953 23.321366 -179.254999 -32.270218 -9.525626 -0.551739 13.739028 3.171480 -0.431339 7.852501 1.884470 -0.507638 9.818615 2.353342 -0.423224 7.830845 1.873795 6.120546 20.413715 0.505228 6.501858 -3.853659 -0.860818 1.825784 1.714197 -2.600023 -17.074392 -8.115901 3.954693 55.300935 -77.905368 -37.564931 11.887132 -0.469706 -17.348697 -8.536708 2.814010 -2.933795 7.374112 -4.386424 -3.335255 -80.659990 -77.450827 82.897262 14.786780 -8.413267 -0.654925 -18.823490 -37.206171 12.230208 -4.336757 74.742142 -8.014200 -0.223237 -4.577328 -2.784508 -0.003891 0.130190 0.408321 -14.382213 -47.452766 12.453826 173.242407 76.867617 168.820143 -1.395063 -19.712016 0.630103 0.017349 0.113101 -0.001204
-9.287116 51.100993 23.318252 -179.273575 -32.206830 -9.474808 -0.551565 13.681697 3.133547 -0.432291 7.843560 1.881677 -0.500657 9.806324 2.348337 -0.421138 7.820907 1.870421 6.096565 20.327444 0.499233 6.464613 -3.930879 -0.844930 1.835017 1.688928 -2.606972 -17.097986 -8.147498 3.967814 54.972842 -77.868834 -37.241965 11.888043 -0.456209 -17.339024 -8.508607 2.769500 -2.945641 7.380405 -4.354745 -3.342103 -80.624918 -77.511242 82.850695 14.761279 -8.363649 -0.715627 -18.692242 -37.117382 12.034683 -4.167981 75.143570 -7.883963 -0.255893 -5.161451 -2.826433 -0.000018 0.092083 0.448415 -14.356729 -47.532464 12.415117 173.239387 76.855378 168.820152 -1.393061 -19.732322 0.627625 0.019066 0.126872 -0.001309
-9.282311 51.078312 23.309009 -179.269425 -32.191712 -9.478727 -0.550891 13.687241 3.142533 -0.426467 7.823056 1.874421 -0.475621 9.755017 2.334021 -0.444135 7.848161 1.882819 6.075256 20.245752 0.497262 6.427865 -4.004628 -0.828987 1.843468 1.675466 -2.609134 -17.115921 -8.150116 3.976849 54.828030 -77.855825 -37.126385 11.884950 -0.441542 -17.311122 -8.502861 2.765561 -2.945644 7.402754 -4.363196 -3.366375 -80.634365 -77.494400 82.874476 14.787426 -8.310007 -0.784504 -18.575056 -36.915399 11.850581 -3.888271 75.498519 -7.640127 -0.260755 -5.773949 -2.847164 -0.005762 0.093023 0.465444 -14.372450 -47.541767 12.424022 173.203402 76.841747 168.789784 -1.394607 -19.763163 0.616271 0.020387 0.139702 0.002990
-9.282185 51.056178 23.304926 -179.293168 -32.145698 -9.432457 -0.536469 13.663654 3.134066 -0.413292 7.791420 1.863667 -0.480735 9.736627 2.321231 -0.443283 7.824731 1.873583 6.049130 20.192617 0.507776 6.390149 -4.075608 -0.812853 1.828548 1.707822 -2.593789 -17.116181 -8.158855 3.978672 54.809791 -77.840253 -37.120101 11.864644 -0.433247 -17.301643 -8.508116 2.784938 -2.943085 7.418840 -4.371541 -3.386608 -80.696237 -77.421936 82.975019 14.738529 -8.303522 -0.804125 -18.429418 -36.806935 11.643773 -3.537417 75.917686 -7.325036 -0.273333 -6.304553 -2.825617 -0.005714 0.019180 0.445435 -14.334840 -47.593289 12.397511 173.204063 76.840414 168.789538 -1.400732 -19.775594 0.614236 0.024455 0.145702 0.008655
-9.277876 51.040916 23.298224 -179.301379 -32.125056 -9.413510 -0.534309 13.645029 3.123888 -0.408151 7.787043 1.863876 -0.465066 9.717785 2.316141 -0.440015 7.806110 1.865406 6.021866 20.158984 0.519860 6.351566 -4.165000 -0.801315 1.834471 1.697379 -2.595424 -17.135699 -8.122932 3.986125 54.863625 -77.821387 -37.194150 11.846111 -0.423650 -17.292508 -8.500247 2.772362 -2.948267 7.406075 -4.347591 -3.384183 -80.820305 -77.332030 83.154562 14.722934 -8.290172 -0.822726 -18.286786 -36.665181 11.447831 -3.102252 76.336826 -6.917129 -0.300406 -6.780519 -2.815657 -0.004859 -0.084555 0.435688 -14.316984 -47.611199 12.388685 173.206463 76.839826 168.795373 -1.405753 -19.783347 0.610409 0.025357 0.145482 0.011549
-9.272056 51.029534 23.292364 -179.313246 -32.108102 -9.396094 -0.521473 13.639943 3.130337 -0.409865 7.772319 1.852382 -0.454807 9.705199 2.312409 -0.396488 7.754349 1.846866 5.969819 20.195339 0.555487 6.314225 -4.292097 -0.799581 1.847285 1.683723 -2.590494 -17.195343 -8.049964 3.993830 54.957962 -77.803483 -37.306769 11.837681 -0.427698 -17.290336 -8.526135 2.790955 -2.942286 7.376978 -4.309763 -3.368437 -81.000535 -77.259042 83.403156 14.711979 -8.279260 -0.826842 -18.122407 -36.526820 11.255122 -2.621234 76.753919 -6.449007 -0.349945 -7.197241 -2.838133 -0.002763 -0.209369 0.453112 -14.298957 -47.622673 12.384219 173.109291 76.834398 168.702274 -1.429249 -19.790278 0.607272 0.020300 0.142252 0.012589
-9.269790 51.015548 23.295640 -179.357542 -32.038207 -9.335403 -0.493152 13.597232 3.122517 -0.408451 7.741223 1.833518 -0.463832 9.698306 2.306176 -0.373443 7.730789 1.840499 5.941250 20.135978 0.560570 6.283834 -4.348549 -0.786836 1.871770 1.665332 -2.594666 -17.242393 -8.003334 3.998063 55.107948 -77.791201 -37.465252 11.834554 -0.423460 -17.304107 -8.514333 2.775692 -2.953169 7.374974 -4.301467 -3.369472 -81.084032 -77.182939 83.513637 14.705824 -8.264591 -0.814968 -17.910880 -36.471903 11.053592 -2.134219 77.170706 -5.956848 -0.424918 -7.558355 -2.903889 0.000358 -0.338977 0.504225 -14.247894 -47.695910 12.358440 173.101332 76.847040 168.696322 -1.428474 -19.790750 0.598144 0.020049 0.145357 0.018513
